<?xml version="1.0" encoding="UTF-8" standalone="no"?><!DOCTYPE svg PUBLIC "-//W3C//DTD SVG 1.1//EN" "http://www.w3.org/Graphics/SVG/1.1/DTD/svg11.dtd"><svg width="23px" height="23px" version="1.1" xmlns="http://www.w3.org/2000/svg" xmlns:xlink="http://www.w3.org/1999/xlink" xml:space="preserve" xmlns:serif="http://www.serif.com/" style="fill-rule:evenodd;clip-rule:evenodd;stroke-linejoin:round;stroke-miterlimit:2;"><g transform="matrix(1.21053,0,0,1.21053,-77.4737,-170.684)"><g><rect id="audio_sound_fx" x="64" y="141" width="19" height="19" style="fill:none;"/><g id="audio_sound_fx1" serif:id="audio_sound_fx"><g id="Instr-Preset" serif:id="Instr Preset" transform="matrix(0.928922,0,0,0.928922,34.8949,99.8189)"><path d="M49,54.5C49,50.361 45.639,47 41.5,47C37.361,47 34,50.361 34,54.5C34,58.639 37.361,62 41.5,62C45.639,62 49,58.639 49,54.5Z"/><path d="M49,54.5C49,58.639 45.639,62 41.5,62C37.361,62 34,58.639 34,54.5C34,50.361 37.361,47 41.5,47C45.639,47 49,50.361 49,54.5ZM48.111,54.5C48.111,50.851 45.149,47.889 41.5,47.889C37.851,47.889 34.889,50.851 34.889,54.5C34.889,58.149 37.851,61.111 41.5,61.111C45.149,61.111 48.111,58.149 48.111,54.5Z" style="fill:rgb(162,240,211);"/></g><g transform="matrix(0.87844,0,0,0.927786,-4309.68,-95.3636)"><g><clipPath id="_clip1"><path d="M4988.14,264.837C4988.14,264.837 4988.18,264.775 4988.18,264.805L4988.18,265.226C4988.18,265.256 4988.14,265.258 4988.14,265.258L4984.98,265.258L4984.98,268.443C4984.98,268.461 4984.97,268.475 4984.95,268.475L4984.44,268.475C4984.42,268.475 4984.4,268.461 4984.4,268.443L4984.4,261.439C4984.4,261.422 4984.42,261.407 4984.44,261.407L4988.64,261.407C4988.65,261.407 4988.67,261.42 4988.67,261.436L4988.67,261.86C4988.67,261.89 4988.64,261.892 4988.64,261.892L4984.98,261.892L4984.98,264.773L4988.14,264.773C4988.12,264.773 4988.11,264.788 4988.11,264.805L4988.14,264.805L4988.14,264.837Z"/></clipPath><g clip-path="url(#_clip1)"><g transform="matrix(0.940399,0,0,0.890383,4978.92,254.76)"><rect x="5" y="7" width="6" height="9" style="fill:rgb(162,240,211);"/></g></g></g><g><clipPath id="_clip2"><path d="M4989.61,268.475L4989.15,268.475C4989.13,268.475 4989.12,268.469 4989.12,268.458C4989.11,268.448 4989.11,268.435 4989.12,268.426L4991.64,264.85L4989.23,261.457L4989.23,261.424C4989.24,261.414 4989.25,261.407 4989.26,261.407L4989.76,261.407C4989.82,261.407 4989.86,261.422 4989.89,261.446C4989.91,261.468 4989.93,261.492 4989.95,261.521L4992.04,264.538C4992.04,264.531 4992.05,264.524 4992.05,264.518C4992.06,264.492 4992.07,264.465 4992.09,264.437L4992.09,264.436L4994.15,261.525C4994.17,261.497 4994.19,261.471 4994.22,261.449C4994.25,261.421 4994.28,261.407 4994.32,261.407L4994.81,261.407C4994.82,261.407 4994.83,261.414 4994.84,261.424C4994.85,261.435 4994.84,261.447 4994.84,261.457L4992.43,264.825L4994.94,268.426L4994.94,268.458C4994.93,268.469 4994.92,268.475 4994.91,268.475L4994.41,268.475C4994.35,268.475 4994.31,268.457 4994.27,268.422C4994.25,268.393 4994.22,268.364 4994.21,268.337L4992.04,265.165C4992.02,265.195 4992.01,265.225 4991.99,265.253L4989.82,268.337L4989.82,268.338C4989.79,268.37 4989.77,268.399 4989.73,268.427C4989.7,268.459 4989.65,268.475 4989.61,268.475C4989.62,268.475 4989.64,268.461 4989.64,268.443L4989.64,268.44C4989.64,268.441 4989.63,268.442 4989.62,268.443C4989.62,268.459 4989.61,268.475 4989.61,268.475Z"/></clipPath><g clip-path="url(#_clip2)"><g transform="matrix(1.07177,0,0,1.00965,4976.55,252.916)"><rect x="10.842" y="8" width="7.158" height="7.466" style="fill:rgb(162,240,211);"/></g></g></g></g></g></g></g></svg>