<?xml version="1.0" encoding="UTF-8" standalone="no"?><!DOCTYPE svg PUBLIC "-//W3C//DTD SVG 1.1//EN" "http://www.w3.org/Graphics/SVG/1.1/DTD/svg11.dtd"><svg width="23px" height="23px" version="1.1" xmlns="http://www.w3.org/2000/svg" xmlns:xlink="http://www.w3.org/1999/xlink" xml:space="preserve" xmlns:serif="http://www.serif.com/" style="fill-rule:evenodd;clip-rule:evenodd;stroke-linecap:round;stroke-linejoin:round;stroke-miterlimit:1.5;"><g transform="matrix(1.21053,0,0,1.21053,-193.684,-170.684)"><g><rect id="kind_device" x="160" y="141" width="19" height="19" style="fill:none;"/><g id="kind_device1" serif:id="kind_device"><g id="Audio-FX" serif:id="Audio FX" transform="matrix(0.605797,0,0,0.605797,163.363,95.7284)"><g id="Audio-FX1" serif:id="Audio FX" transform="matrix(1,0,0,1,-31.3701,31.8215)"><path d="M49,49.727C49,48.222 47.778,47 46.273,47L36.727,47C35.222,47 34,48.222 34,49.727L34,59.273C34,60.778 35.222,62 36.727,62L46.273,62C47.778,62 49,60.778 49,59.273L49,49.727Z" style="fill:rgb(162,240,211);"/><path d="M49.682,49.727L49.682,59.273C49.682,61.154 48.154,62.682 46.273,62.682L36.727,62.682C34.846,62.682 33.318,61.154 33.318,59.273L33.318,49.727C33.318,47.846 34.846,46.318 36.727,46.318L46.273,46.318C48.154,46.318 49.682,47.846 49.682,49.727ZM49,49.727C49,48.222 47.778,47 46.273,47L36.727,47C35.222,47 34,48.222 34,49.727L34,59.273C34,60.778 35.222,62 36.727,62L46.273,62C47.778,62 49,60.778 49,59.273L49,49.727Z" style="fill-opacity:0.66;"/></g><g transform="matrix(0.0550302,0,0,0.0554633,-121.502,33.0764)"><path d="M2295.21,1049.69L2295.21,870.328C2304.7,931.625 2319.94,983.924 2343,1024L2343,895.883C2354.36,943.637 2369.76,979.74 2391,999L2391,922C2401.33,955.01 2418.09,973.365 2440,980L2438,934C2458.93,965.804 2469.08,972.465 2490,960.007" style="fill:none;stroke:black;stroke-width:12.83px;"/></g></g><g transform="matrix(0.605797,0,0,0.605797,141.881,118.31)"><g id="Note-FX" serif:id="Note FX"><path id="Note-FX1" serif:id="Note FX" d="M49,49.727C49,48.222 47.778,47 46.273,47L36.727,47C35.222,47 34,48.222 34,49.727L34,59.273C34,60.778 35.222,62 36.727,62L46.273,62C47.778,62 49,60.778 49,59.273L49,49.727Z" style="fill:rgb(146,222,255);"/><g><clipPath id="_clip1"><path d="M49,49.727C49,48.222 47.778,47 46.273,47L36.727,47C35.222,47 34,48.222 34,49.727L34,59.273C34,60.778 35.222,62 36.727,62L46.273,62C47.778,62 49,60.778 49,59.273L49,49.727Z"/></clipPath><g clip-path="url(#_clip1)"><g transform="matrix(1.26667,0,0,1.26667,-52.2333,-55.0667)"><path d="M74,89L70,89L70,88L74,88L74,89ZM78,87L75,87L75,86L78,86L78,87ZM74,85L70,85L70,84L74,84L74,85Z"/></g></g></g><path id="Note-FX2" serif:id="Note FX" d="M49.682,49.727L49.682,59.273C49.682,61.154 48.154,62.682 46.273,62.682L36.727,62.682C34.846,62.682 33.318,61.154 33.318,59.273L33.318,49.727C33.318,47.846 34.846,46.318 36.727,46.318L46.273,46.318C48.154,46.318 49.682,47.846 49.682,49.727ZM49,49.727C49,48.222 47.778,47 46.273,47L36.727,47C35.222,47 34,48.222 34,49.727L34,59.273C34,60.778 35.222,62 36.727,62L46.273,62C47.778,62 49,60.778 49,59.273L49,49.727Z" style="fill-opacity:0.66;"/></g></g><g id="Instrument" transform="matrix(0.605797,0,0,0.605797,146.838,100.577)"><g id="Instrument1" serif:id="Instrument" transform="matrix(1,0,0,1,0,32)"><path d="M49,49.727C49,48.222 47.778,47 46.273,47L36.727,47C35.222,47 34,48.222 34,49.727L34,59.273C34,60.778 35.222,62 36.727,62L46.273,62C47.778,62 49,60.778 49,59.273L49,49.727Z" style="fill:rgb(212,192,254);"/><path d="M49.682,49.727L49.682,59.273C49.682,61.154 48.154,62.682 46.273,62.682L36.727,62.682C34.846,62.682 33.318,61.154 33.318,59.273L33.318,49.727C33.318,47.846 34.846,46.318 36.727,46.318L46.273,46.318C48.154,46.318 49.682,47.846 49.682,49.727ZM49,49.727C49,48.222 47.778,47 46.273,47L36.727,47C35.222,47 34,48.222 34,49.727L34,59.273C34,60.778 35.222,62 36.727,62L46.273,62C47.778,62 49,60.778 49,59.273L49,49.727Z" style="fill-opacity:0.66;"/></g><g transform="matrix(0.95575,0,0,0.955748,1.87631,3.88683)"><g transform="matrix(2.46715e-18,0.0390625,-0.0386406,2.29387e-18,51.6416,55.6988)"><path d="M645.021,116.888L932.001,116.888" style="fill:none;stroke:black;stroke-width:19.16px;"/></g><g transform="matrix(-0.0390624,4.85905e-18,-4.65992e-18,-0.0386407,72.3211,96.6217)"><path d="M645.021,116.888L932.001,116.888" style="fill:none;stroke:black;stroke-width:19.16px;"/></g><g transform="matrix(2.46715e-18,0.0390625,-0.0386406,2.29387e-18,40.4315,55.6988)"><path d="M645.021,116.888L932.001,116.888" style="fill:none;stroke:black;stroke-width:19.16px;"/></g><g transform="matrix(-0.0390624,4.85905e-18,-4.65992e-18,-0.0386407,72.3211,85.4115)"><path d="M645.021,116.888L932.001,116.888" style="fill:none;stroke:black;stroke-width:19.16px;"/></g><g transform="matrix(2.46715e-18,0.0390625,-0.0386406,2.29387e-18,44.1682,55.6988)"><path d="M645.021,116.888L932.001,116.888" style="fill:none;stroke:black;stroke-width:10.05px;"/></g><g transform="matrix(0.0576839,-3.71206e-19,7.00098e-18,0.606633,-93.9155,2.01938)"><path d="M2334,130.022L2297,130.022L2297,140.371C2297,140.718 2299.97,141 2303.62,141L2327.38,141C2331.03,141 2334,140.718 2334,140.371L2334,130.022Z"/></g><g transform="matrix(0.0576839,-3.71206e-19,7.00098e-18,0.606633,-90.1788,2.01938)"><path d="M2334,130.022L2297,130.022L2297,140.371C2297,140.718 2299.97,141 2303.62,141L2327.38,141C2331.03,141 2334,140.718 2334,140.371L2334,130.022Z"/></g><g transform="matrix(2.46715e-18,0.0390625,-0.0386406,2.29387e-18,47.9049,55.6988)"><path d="M645.021,116.888L932.001,116.888" style="fill:none;stroke:black;stroke-width:10.05px;"/></g></g></g></g></g></g></svg>