<?xml version="1.0" encoding="UTF-8" standalone="no"?><!DOCTYPE svg PUBLIC "-//W3C//DTD SVG 1.1//EN" "http://www.w3.org/Graphics/SVG/1.1/DTD/svg11.dtd"><svg width="23px" height="23px" version="1.1" xmlns="http://www.w3.org/2000/svg" xmlns:xlink="http://www.w3.org/1999/xlink" xml:space="preserve" xmlns:serif="http://www.serif.com/" style="fill-rule:evenodd;clip-rule:evenodd;stroke-linejoin:round;stroke-miterlimit:2;"><g transform="matrix(1.21053,0,0,1.21053,-38.737,-54.4737)"><g><rect id="library_music" x="32" y="45" width="19" height="19" style="fill:none;"/><g id="Folder-back" serif:id="Folder back" transform="matrix(0.826087,0,0,0.826087,7.21739,9.47826)"><g id="library_music1" serif:id="library_music"><g id="Folder-back1" serif:id="Folder back"><path d="M49,52C49,50.895 48.105,50 47,50L43.633,50C42.843,50 42.127,49.535 41.806,48.813C41.715,48.607 41.619,48.393 41.528,48.187C41.207,47.465 40.491,47 39.701,47L36,47C35.47,47 34.961,47.211 34.586,47.586C34.211,47.961 34,48.47 34,49L34,60C34,60.53 34.211,61.039 34.586,61.414C34.961,61.789 35.47,62 36,62L47,62C48.105,62 49,61.105 49,60L49,52Z" style="fill:url(#_Linear1);"/><g><clipPath id="_clip2"><path d="M49,52C49,50.895 48.105,50 47,50L43.633,50C42.843,50 42.127,49.535 41.806,48.813C41.715,48.607 41.619,48.393 41.528,48.187C41.207,47.465 40.491,47 39.701,47L36,47C35.47,47 34.961,47.211 34.586,47.586C34.211,47.961 34,48.47 34,49L34,60C34,60.53 34.211,61.039 34.586,61.414C34.961,61.789 35.47,62 36,62L47,62C48.105,62 49,61.105 49,60L49,52Z"/></clipPath><g clip-path="url(#_clip2)"><g transform="matrix(0.592435,0,0,0.592435,-135.342,49.7359)"><circle cx="298.5" cy="10.5" r="8.5" style="fill:url(#_Linear3);"/><g><clipPath id="_clip4"><circle cx="298.5" cy="10.5" r="8.5"/></clipPath><g clip-path="url(#_clip4)"><g transform="matrix(0.846385,0,0,0.846385,45.8542,1.61296)"><path d="M298.5,2C303.191,2 307,5.809 307,10.5C307,15.191 303.191,19 298.5,19C293.809,19 290,15.191 290,10.5C290,5.809 293.809,2 298.5,2ZM298.5,2.798C294.249,2.798 290.798,6.249 290.798,10.5C290.798,14.751 294.249,18.202 298.5,18.202C302.751,18.202 306.202,14.751 306.202,10.5C306.202,6.249 302.751,2.798 298.5,2.798Z" style="fill:url(#_Linear5);"/></g><g transform="matrix(0.706574,0,0,0.706574,87.5878,3.08098)"><path d="M298.5,2C303.191,2 307,5.809 307,10.5C307,15.191 303.191,19 298.5,19C293.809,19 290,15.191 290,10.5C290,5.809 293.809,2 298.5,2ZM298.5,2.956C294.336,2.956 290.956,6.336 290.956,10.5C290.956,14.664 294.336,18.044 298.5,18.044C302.664,18.044 306.044,14.664 306.044,10.5C306.044,6.336 302.664,2.956 298.5,2.956Z" style="fill:url(#_Linear6);"/></g><g transform="matrix(0.589857,0,0,0.589857,122.428,4.3065)"><path d="M298.5,2C303.191,2 307,5.809 307,10.5C307,15.191 303.191,19 298.5,19C293.809,19 290,15.191 290,10.5C290,5.809 293.809,2 298.5,2ZM298.5,3.145C294.44,3.145 291.145,6.44 291.145,10.5C291.145,14.56 294.44,17.855 298.5,17.855C302.56,17.855 305.855,14.56 305.855,10.5C305.855,6.44 302.56,3.145 298.5,3.145Z" style="fill:url(#_Linear7);"/></g><g transform="matrix(0.466667,0,0,0.466667,159.2,5.6)"><circle cx="298.5" cy="10.5" r="7.5" style="fill:url(#_Linear8);"/></g><g transform="matrix(0.0666667,0,0,0.0666667,278.6,9.8)"><circle cx="298.5" cy="10.5" r="7.5" style="fill:rgb(48,162,101);"/></g></g></g><path d="M298.5,2C303.191,2 307,5.809 307,10.5C307,15.191 303.191,19 298.5,19C293.809,19 290,15.191 290,10.5C290,5.809 293.809,2 298.5,2ZM298.5,2.928C294.321,2.928 290.928,6.321 290.928,10.5C290.928,14.679 294.321,18.072 298.5,18.072C302.679,18.072 306.072,14.679 306.072,10.5C306.072,6.321 302.679,2.928 298.5,2.928Z" style="fill:rgb(119,119,119);"/></g></g></g><path d="M49.5,52L49.5,60C49.5,61.381 48.381,62.5 47,62.5L36,62.5C35.337,62.5 34.701,62.237 34.232,61.768C33.763,61.299 33.5,60.663 33.5,60L33.5,49C33.5,48.337 33.763,47.701 34.232,47.232C34.701,46.763 35.337,46.5 36,46.5L39.701,46.5C40.688,46.5 41.584,47.082 41.985,47.984L42.263,48.609C42.504,49.151 43.041,49.5 43.634,49.5L47,49.5C48.381,49.5 49.5,50.619 49.5,52ZM49,52C49,50.895 48.105,50 47,50L43.633,50C42.843,50 42.127,49.535 41.806,48.813L41.528,48.187C41.207,47.465 40.491,47 39.701,47L36,47C35.47,47 34.961,47.211 34.586,47.586C34.211,47.961 34,48.47 34,49L34,60C34,60.53 34.211,61.039 34.586,61.414C34.961,61.789 35.47,62 36,62L47,62C48.105,62 49,61.105 49,60L49,52Z" style="fill:rgb(68,68,68);"/></g></g></g></g></g><defs><linearGradient id="_Linear1" x1="0" y1="0" x2="1" y2="0" gradientUnits="userSpaceOnUse" gradientTransform="matrix(9.18485e-16,-15,15,9.18485e-16,40,62)"><stop offset="0" style="stop-color:rgb(139,162,104);stop-opacity:1"/><stop offset="1" style="stop-color:rgb(202,222,172);stop-opacity:1"/></linearGradient><linearGradient id="_Linear3" x1="0" y1="0" x2="1" y2="0" gradientUnits="userSpaceOnUse" gradientTransform="matrix(8,16,-16,8,294,2)"><stop offset="0" style="stop-color:rgb(64,64,64);stop-opacity:1"/><stop offset="0.24" style="stop-color:rgb(26,26,26);stop-opacity:1"/><stop offset="0.49" style="stop-color:rgb(36,36,36);stop-opacity:1"/><stop offset="0.58" style="stop-color:rgb(57,57,57);stop-opacity:1"/><stop offset="0.66" style="stop-color:rgb(77,77,77);stop-opacity:1"/><stop offset="0.81" style="stop-color:rgb(67,67,67);stop-opacity:1"/><stop offset="1" style="stop-color:rgb(64,64,64);stop-opacity:1"/></linearGradient><linearGradient id="_Linear5" x1="0" y1="0" x2="1" y2="0" gradientUnits="userSpaceOnUse" gradientTransform="matrix(15.6923,17,-17,15.6923,290,2)"><stop offset="0" style="stop-color:rgb(64,64,64);stop-opacity:1"/><stop offset="0.24" style="stop-color:rgb(26,26,26);stop-opacity:1"/><stop offset="0.49" style="stop-color:rgb(36,36,36);stop-opacity:1"/><stop offset="0.58" style="stop-color:rgb(57,57,57);stop-opacity:1"/><stop offset="0.66" style="stop-color:rgb(77,77,77);stop-opacity:1"/><stop offset="0.81" style="stop-color:rgb(67,67,67);stop-opacity:1"/><stop offset="1" style="stop-color:rgb(64,64,64);stop-opacity:1"/></linearGradient><linearGradient id="_Linear6" x1="0" y1="0" x2="1" y2="0" gradientUnits="userSpaceOnUse" gradientTransform="matrix(15.6923,17,-17,15.6923,290,2)"><stop offset="0" style="stop-color:rgb(64,64,64);stop-opacity:1"/><stop offset="0.24" style="stop-color:rgb(26,26,26);stop-opacity:1"/><stop offset="0.49" style="stop-color:rgb(36,36,36);stop-opacity:1"/><stop offset="0.58" style="stop-color:rgb(57,57,57);stop-opacity:1"/><stop offset="0.66" style="stop-color:rgb(77,77,77);stop-opacity:1"/><stop offset="0.81" style="stop-color:rgb(67,67,67);stop-opacity:1"/><stop offset="1" style="stop-color:rgb(64,64,64);stop-opacity:1"/></linearGradient><linearGradient id="_Linear7" x1="0" y1="0" x2="1" y2="0" gradientUnits="userSpaceOnUse" gradientTransform="matrix(15.6923,17,-17,15.6923,290,2)"><stop offset="0" style="stop-color:rgb(64,64,64);stop-opacity:1"/><stop offset="0.24" style="stop-color:rgb(26,26,26);stop-opacity:1"/><stop offset="0.49" style="stop-color:rgb(36,36,36);stop-opacity:1"/><stop offset="0.58" style="stop-color:rgb(57,57,57);stop-opacity:1"/><stop offset="0.66" style="stop-color:rgb(77,77,77);stop-opacity:1"/><stop offset="0.81" style="stop-color:rgb(67,67,67);stop-opacity:1"/><stop offset="1" style="stop-color:rgb(64,64,64);stop-opacity:1"/></linearGradient><linearGradient id="_Linear8" x1="0" y1="0" x2="1" y2="0" gradientUnits="userSpaceOnUse" gradientTransform="matrix(2.14286,10.7143,-10.7143,2.14286,297.429,5.14286)"><stop offset="0" style="stop-color:rgb(99,210,151);stop-opacity:1"/><stop offset="0.5" style="stop-color:rgb(162,240,211);stop-opacity:1"/><stop offset="1" style="stop-color:rgb(99,210,151);stop-opacity:1"/></linearGradient></defs></svg>