<?xml version="1.0" encoding="UTF-8" standalone="no"?><!DOCTYPE svg PUBLIC "-//W3C//DTD SVG 1.1//EN" "http://www.w3.org/Graphics/SVG/1.1/DTD/svg11.dtd"><svg width="23px" height="23px" version="1.1" xmlns="http://www.w3.org/2000/svg" xmlns:xlink="http://www.w3.org/1999/xlink" xml:space="preserve" xmlns:serif="http://www.serif.com/" style="fill-rule:evenodd;clip-rule:evenodd;stroke-linejoin:round;stroke-miterlimit:2;"><g transform="matrix(1.21053,0,0,1.21053,-38.737,-54.4737)"><g><rect id="user_library" x="32" y="45" width="19" height="19" style="fill:none;"/><g id="Folder-back" serif:id="Folder back" transform="matrix(0.826087,0,0,0.826087,7.21739,9.47826)"><g id="user_library1" serif:id="user_library"><g id="Folder-back1" serif:id="Folder back"><path d="M49,52C49,50.895 48.105,50 47,50L43.633,50C42.843,50 42.127,49.535 41.806,48.813C41.715,48.607 41.619,48.393 41.528,48.187C41.207,47.465 40.491,47 39.701,47L36,47C35.47,47 34.961,47.211 34.586,47.586C34.211,47.961 34,48.47 34,49L34,60C34,60.53 34.211,61.039 34.586,61.414C34.961,61.789 35.47,62 36,62L47,62C48.105,62 49,61.105 49,60L49,52Z" style="fill:url(#_Linear1);"/><g><clipPath id="_clip2"><path d="M49,52C49,50.895 48.105,50 47,50L43.633,50C42.843,50 42.127,49.535 41.806,48.813C41.715,48.607 41.619,48.393 41.528,48.187C41.207,47.465 40.491,47 39.701,47L36,47C35.47,47 34.961,47.211 34.586,47.586C34.211,47.961 34,48.47 34,49L34,60C34,60.53 34.211,61.039 34.586,61.414C34.961,61.789 35.47,62 36,62L47,62C48.105,62 49,61.105 49,60L49,52Z"/></clipPath><g clip-path="url(#_clip2)"><g transform="matrix(1,0,0,1,32,45)"><g transform="matrix(1.5,0,0,1.5,0.5,-3)"><path d="M9,11.572C9,10.392 7.986,9.428 6.75,9.428L5.25,9.428C4.012,9.428 3,10.393 3,11.572L3,12L9,12L9,11.572Z" style="fill-opacity:0.42;fill-rule:nonzero;"/></g><g transform="matrix(1.5,0,0,1.5,0.5,-3)"><circle cx="6" cy="7.5" r="1.5" style="fill-opacity:0.42;"/></g></g></g></g><path d="M49.5,52L49.5,60C49.5,61.381 48.381,62.5 47,62.5L36,62.5C35.337,62.5 34.701,62.237 34.232,61.768C33.763,61.299 33.5,60.663 33.5,60L33.5,49C33.5,48.337 33.763,47.701 34.232,47.232C34.701,46.763 35.337,46.5 36,46.5L39.701,46.5C40.688,46.5 41.584,47.082 41.985,47.984L42.263,48.609C42.504,49.151 43.041,49.5 43.634,49.5L47,49.5C48.381,49.5 49.5,50.619 49.5,52ZM49,52C49,50.895 48.105,50 47,50L43.633,50C42.843,50 42.127,49.535 41.806,48.813L41.528,48.187C41.207,47.465 40.491,47 39.701,47L36,47C35.47,47 34.961,47.211 34.586,47.586C34.211,47.961 34,48.47 34,49L34,60C34,60.53 34.211,61.039 34.586,61.414C34.961,61.789 35.47,62 36,62L47,62C48.105,62 49,61.105 49,60L49,52Z" style="fill:rgb(68,68,68);"/></g></g></g></g></g><defs><linearGradient id="_Linear1" x1="0" y1="0" x2="1" y2="0" gradientUnits="userSpaceOnUse" gradientTransform="matrix(9.18485e-16,-15,15,9.18485e-16,40,62)"><stop offset="0" style="stop-color:rgb(112,62,163);stop-opacity:1"/><stop offset="1" style="stop-color:rgb(212,192,254);stop-opacity:1"/></linearGradient></defs></svg>